HIERARCHY
ROOT Hips
{
	OFFSET 0.000000 0.000000 0.000000
	CHANNELS 6 Xposition Yposition Zposition Zrotation Yrotation Xrotation 
	JOINT LHipJoint
	{
		OFFSET 0.000000 0.000000 0.000000
		CHANNELS 3 Zrotation Yrotation Xrotation
		JOINT LeftUpLeg
		{
			OFFSET 1.363060 -1.794630 0.839290
			CHANNELS 3 Zrotation Yrotation Xrotation
			JOINT LeftLeg
			{
				OFFSET 2.448110 -6.726130 0.000000
				CHANNELS 3 Zrotation Yrotation Xrotation
				JOINT LeftFoot
				{
					OFFSET 2.562200 -7.039590 0.000000
					CHANNELS 3 Zrotation Yrotation Xrotation
					JOINT LeftToeBase
					{
						OFFSET 0.157640 -0.433110 2.322550
						CHANNELS 3 Zrotation Yrotation Xrotation
						End Site
						{
							OFFSET 0.000000 0.000000 0.000000
						}
					}
				}
			}
		}
	}
	JOINT RHipJoint
	{
		OFFSET 0.000000 0.000000 0.000000
		CHANNELS 3 Zrotation Yrotation Xrotation
		JOINT RightUpLeg
		{
			OFFSET -1.305520 -1.794630 0.839290
			CHANNELS 3 Zrotation Yrotation Xrotation
			JOINT RightLeg
			{
				OFFSET -2.542530 -6.985550 0.000000
				CHANNELS 3 Zrotation Yrotation Xrotation
				JOINT RightFoot
				{
					OFFSET -2.568260 -7.056230 0.000000
					CHANNELS 3 Zrotation Yrotation Xrotation
					JOINT RightToeBase
					{
						OFFSET -0.164730 -0.452590 2.363150
						CHANNELS 3 Zrotation Yrotation Xrotation
						End Site
						{
							OFFSET 0.000000 0.000000 0.000000
						}
					}
				}
			}
		}
	}
}
MOTION
Frames: 33
Frame Time: 0.008333
1.972515 15.593005 0.342642 96.755604 87.318870 138.028876 -10.580627 -3.636057 -1.710881 -12.114606 -5.355063 -72.172730 1.453375 5.297984 82.115807 4.829995 20.932247 -27.830684 -6.736000 -0.000000 -4.276500 7.751628 -0.479300 -3.803872 19.110035 -6.727833 -64.912257 2.386849 -6.276348 63.111544 -2.774876 -4.294101 -29.714773 2.456000 0.000000 -28.803900
2.148116 15.611816 0.353385 102.403084 87.634068 143.760758 -10.079576 -3.634045 -1.618911 -12.324409 -5.965788 -74.517996 1.361297 5.325677 81.243010 4.863417 20.471589 -28.003484 -6.625299 0.000000 -4.392600 8.019772 -0.376742 -4.078375 19.149083 -7.235873 -63.835183 2.463006 -6.253576 62.708888 -2.695853 -4.130729 -29.462816 2.373600 -0.000001 -30.879801
2.328107 15.627270 0.362111 109.715432 88.065294 151.128078 -9.542504 -3.507903 -1.514046 -12.559335 -6.503055 -76.775351 1.228138 5.347656 80.081733 4.863816 19.812276 -28.093337 -6.426100 -0.000000 -4.721000 8.338692 -0.221049 -4.357112 19.217796 -7.737121 -62.701599 2.529789 -6.209827 62.337643 -2.601371 -3.912598 -29.165753 2.271900 -0.000000 -33.045900
2.512753 15.639336 0.368817 118.745653 88.632090 160.184452 -9.002271 -3.221687 -1.389875 -12.843264 -6.946054 -78.942277 1.050200 5.382253 78.617243 4.826449 18.945029 -28.078453 -6.130900 0.000000 -5.332601 8.682016 0.013170 -4.648340 19.303909 -8.220956 -61.498332 2.577574 -6.120526 62.006073 -2.491873 -3.628441 -28.832953 2.151600 -0.000001 -35.239800
2.702270 15.648045 0.373591 128.982712 89.305984 170.418164 -8.539367 -2.779093 -1.233856 -13.216671 -7.297564 -81.003469 0.821694 5.449152 76.832017 4.749232 17.884852 -27.936024 -5.741700 -0.000000 -6.276100 8.972843 0.317371 -4.960225 19.370038 -8.695997 -60.225823 2.595745 -5.964877 61.724612 -2.369864 -3.272689 -28.475072 2.014700 -0.000000 -37.421700
2.896728 15.653555 0.376603 139.370772 89.972008 -179.233339 -8.245121 -2.260662 -1.034354 -13.721320 -7.610984 -82.909714 0.537163 5.545499 74.713858 4.632119 16.667793 -27.637976 -5.269300 0.000000 -7.667200 9.117957 0.620375 -5.290711 19.367753 -9.208826 -58.909315 2.586504 -5.755025 61.490378 -2.239949 -2.851347 -28.108947 1.864900 -0.000001 -39.549400
3.096088 15.656092 0.378184 -31.241261 89.528318 10.067850 -8.134795 -1.780288 -0.793713 -14.368743 -7.966064 -84.590971 0.196375 5.634613 72.271691 4.479194 15.340910 -27.183651 -4.740900 0.000000 -9.443800 9.096926 0.828410 -5.625332 19.281748 -9.822018 -57.578178 2.570917 -5.540835 61.271958 -2.106808 -2.385936 -27.746298 1.706799 0.000000 -41.639901
3.300283 15.655914 0.378723 -23.464194 89.276885 17.705262 -8.137604 -1.388523 -0.525715 -15.133156 -8.399366 -85.997687 -0.193939 5.675838 69.528145 4.298104 13.956301 -26.585152 -4.188300 -0.000001 -11.586000 8.978622 0.905842 -5.950153 19.140488 -10.559257 -56.231454 2.571029 -5.364564 61.026215 -1.974181 -1.904155 -27.391927 1.545800 0.000000 -43.700800
3.509172 15.653278 0.378717 -17.334335 89.255509 23.641998 -8.176328 -1.067494 -0.243120 -15.982515 -8.893626 -87.111397 -0.626932 5.651451 66.506812 4.099585 12.565307 -25.882447 -3.645900 0.000001 -14.006700 8.842044 0.876643 -6.261172 18.977942 -11.400486 -54.841755 2.594053 -5.234053 60.722734 -1.845261 -1.433060 -27.040654 1.388100 0.000001 -45.752800
3.722628 15.648408 0.378646 -12.564497 89.400893 28.166485 -8.211697 -0.783286 0.047174 -16.892692 -9.410694 -87.927180 -1.099075 5.560751 63.226806 3.894817 11.210543 -25.135867 -3.143200 -0.000000 -16.583500 8.728629 0.779692 -6.561385 18.808194 -12.310991 -53.376584 2.635813 -5.136266 60.347532 -1.723030 -0.996038 -26.682728 1.239500 -0.000001 -47.815000
3.940558 15.641419 0.378980 -8.792623 89.649450 31.640098 -8.233378 -0.516344 0.341427 -17.842628 -9.913475 -88.441307 -1.608270 5.405776 59.707646 3.693180 9.921044 -24.411168 -2.700100 -0.000000 -19.198200 8.648985 0.644053 -6.854583 18.628049 -13.256949 -51.811067 2.688566 -5.055653 59.897086 -1.610232 -0.613549 -26.307859 1.105301 0.000000 -49.895800
4.162968 15.632332 0.380129 -5.678908 89.948575 34.401494 -8.243271 -0.263905 0.636548 -18.806293 -10.369235 -88.651522 -2.151090 5.185392 55.975130 3.501282 8.710416 -23.771884 -2.327300 0.000000 -21.694200 8.599484 0.486982 -7.143046 18.426037 -14.209454 -50.128046 2.744838 -4.980548 59.373390 -1.508750 -0.301206 -25.905925 0.989300 -0.000000 -51.992900
4.389972 15.620980 0.382358 177.067098 89.743457 -143.260406 -8.246383 -0.035275 0.929314 -19.745973 -10.748727 -88.562999 -2.719066 4.895136 52.065714 3.322425 7.581935 -23.260727 -2.024901 0.000000 -23.946800 8.571814 0.317817 -7.426388 18.188979 -15.141618 -48.318656 2.798276 -4.903665 58.783015 -1.419539 -0.068437 -25.469246 0.893600 0.000001 -54.088300
4.621846 15.606988 0.385730 179.693724 89.461215 -141.095434 -8.248224 0.153513 1.217319 -20.608211 -11.029548 -88.195289 -3.295520 4.529857 48.032907 3.158790 6.540002 -22.897698 -1.787800 -0.000000 -25.799801 8.556268 0.140878 -7.701296 17.906920 -16.028307 -46.384080 2.843847 -4.821099 58.136714 -1.342366 0.083780 -24.992559 0.818100 -0.000000 -56.153000
4.858771 15.589962 0.390552 -177.608024 89.226034 -138.916612 -8.253203 0.282565 1.491738 -21.340120 -11.184090 -87.572556 -3.856010 4.089386 43.949671 3.005906 5.580108 -22.654196 -1.601100 -0.000001 -27.284900 8.545483 -0.043071 -7.963107 17.570502 -16.846010 -44.321980 2.877097 -4.731586 57.446410 -1.276505 0.156693 -24.470672 0.761500 0.000000 -58.163600
5.101339 15.569264 0.396435 -174.646217 89.054366 -136.520223 -8.268321 0.334058 1.753064 -21.864758 -11.213852 -86.752797 -4.365117 3.581373 39.918589 2.867816 4.733437 -22.497086 -1.456300 0.000000 -28.273200 8.529617 -0.236633 -8.202078 17.183289 -17.573381 -42.160140 2.896192 -4.636561 56.728449 -1.219880 0.165065 -23.903942 0.719400 -0.000000 -60.090700
5.349992 15.544264 0.403246 -171.280649 88.945549 -133.757179 -8.299588 0.294112 1.997431 -22.118908 -11.125027 -85.800800 -4.785280 3.028041 36.070721 2.745674 4.031363 -22.362264 -1.342200 0.000000 -28.807400 8.503426 -0.445269 -8.407775 16.751948 -18.194668 -39.926977 2.900821 -4.540241 55.999258 -1.170047 0.125087 -23.292764 0.686900 0.000001 -61.925600
5.605146 15.514579 0.411147 -167.440344 88.878561 -130.541997 -8.350872 0.158617 2.221818 -22.062133 -10.938082 -84.786583 -5.085872 2.464380 32.544088 2.638524 3.503820 -22.159869 -1.246500 -0.000001 -29.141300 8.467378 -0.676058 -8.568193 16.291266 -18.693838 -37.657024 2.891895 -4.448160 55.270238 -1.125372 0.045897 -22.632410 0.660500 0.000000 -63.690500
5.867179 15.479636 0.419819 -163.090266 88.828607 -126.818264 -8.422141 -0.064692 2.429758 -21.661839 -10.696141 -83.801418 -5.245668 1.937132 29.514026 2.553764 3.193649 -21.842337 -1.166300 -0.000000 -29.277000 8.428002 -0.934386 -8.672746 15.819983 -19.071183 -35.403567 2.873271 -4.368010 54.559708 -1.082124 -0.048605 -21.922948 0.633700 0.000000 -65.415500
6.136256 15.439310 0.429344 -158.296398 88.760389 -122.630957 -8.506389 -0.353584 2.623933 -20.928978 -10.441151 -82.929730 -5.264076 1.494638 27.138932 2.491887 3.112811 -21.353374 -1.093200 -0.000000 -29.394500 8.400660 -1.221038 -8.712970 15.358582 -19.327804 -33.213678 2.847708 -4.304778 53.880191 -1.037697 -0.145619 -21.154769 0.602800 0.000000 -67.163600
6.412365 15.393540 0.439827 -153.207177 88.646874 -118.109152 -8.591214 -0.673759 2.807453 -19.909983 -10.209129 -82.254540 -5.156949 1.179495 25.561671 2.449802 3.246553 -20.655321 -1.015300 0.000001 -29.616100 8.405462 -1.529146 -8.684217 14.922437 -19.473349 -31.131519 2.816117 -4.259594 53.245902 -0.989155 -0.231448 -20.313190 0.564000 -0.000000 -69.008900
6.695168 15.342530 0.451434 -148.018184 88.475542 -113.437130 -8.663986 -0.986917 2.979754 -18.687258 -10.016404 -81.847335 -4.949957 1.022352 24.892317 2.417514 3.545604 -19.721407 -0.916300 0.000000 -30.024000 8.460104 -1.845741 -8.586034 14.517142 -19.523986 -29.189411 2.776159 -4.229056 52.671305 -0.933871 -0.294804 -19.376235 0.514800 -0.000000 -71.027300
6.984122 15.286668 0.464380 -142.946386 88.252576 -108.829426 -8.715721 -1.259667 3.135163 -17.372396 -9.857945 -81.755754 -4.669881 1.037530 25.188927 2.379408 3.935203 -18.531034 -0.778200 -0.000000 -30.639100 8.574940 -2.155279 -8.421275 14.135224 -19.501287 -27.407184 2.722563 -4.206990 52.171186 -0.869973 -0.327808 -18.316266 0.454100 0.000000 -73.280100
7.278332 15.226511 0.478847 -138.127225 87.993525 -104.432099 -8.744954 -1.475251 3.259077 -16.089647 -9.700895 -81.991632 -4.337778 1.222862 26.450871 2.315744 4.321887 -17.073204 -0.588200 -0.000000 -31.407900 8.748763 -2.446767 -8.196355 13.761830 -19.428848 -25.783177 2.649112 -4.187445 51.754917 -0.797123 -0.329110 -17.100718 0.382700 0.000000 -75.795800
7.576698 15.162776 0.495066 -133.655145 87.719563 -100.355046 -8.752593 -1.632388 3.336379 -14.948730 -9.507508 -82.524911 -3.965643 1.556240 28.597940 2.212509 4.628871 -15.354959 -0.347300 0.000000 -32.172600 8.974530 -2.713044 -7.919582 13.375905 -19.328700 -24.307208 2.549718 -4.166531 51.430560 -0.716827 -0.303810 -15.696604 0.303400 -0.000000 -78.552500
7.877740 15.096393 0.513057 -129.531071 87.446273 -96.618867 -8.741271 -1.744842 3.352699 -14.024384 -9.237179 -83.286501 -3.558972 1.998976 31.480027 2.065856 4.806152 -13.420887 -0.074100 -0.000000 -32.676200 9.239487 -2.952757 -7.602949 12.964130 -19.216270 -22.955333 2.420119 -4.142802 51.200040 -0.633430 -0.266726 -14.077142 0.221201 0.000000 -81.453200
8.180036 15.028406 0.533268 -125.792627 87.191820 -93.269998 -8.708619 -1.827858 3.307690 -13.339344 -8.881011 -84.186710 -3.121072 2.499102 34.886285 1.889739 4.860826 -11.353930 0.201600 0.000000 -32.640200 9.533865 -3.163085 -7.259033 12.511782 -19.097511 -21.715388 2.256677 -4.116500 51.068900 -0.552642 -0.235161 -12.216419 0.141200 0.000001 -84.375900
8.481907 14.960077 0.555775 -122.436703 86.968092 -90.309967 -8.652231 -1.895058 3.206580 -12.890279 -8.441690 -85.132607 -2.662431 3.006289 38.594414 1.706114 4.822109 -9.282541 0.448401 0.000000 -31.867900 9.846931 -3.342926 -6.902693 12.015267 -18.972072 -20.576836 2.058469 -4.089242 51.044606 -0.482196 -0.229335 -10.106427 0.068300 0.000001 -87.128000
8.781488 14.892698 0.580241 -119.462059 86.780197 -87.736714 -8.571450 -1.955135 3.059558 -12.650822 -7.935948 -86.043806 -2.199899 3.481003 42.402552 1.539874 4.738000 -7.365657 0.642899 0.000000 -30.309300 10.166970 -3.491484 -6.548745 11.484082 -18.829307 -19.533669 1.828055 -4.062656 51.135891 -0.431974 -0.276192 -7.774419 0.006200 -0.000000 -89.433900
9.077104 14.827528 0.606454 -116.889862 86.634404 -85.563394 -8.466611 -2.009934 2.879858 -12.581378 -7.396033 -86.860755 -1.751599 3.899749 46.153170 1.411552 4.667733 -5.747436 0.778800 0.000000 -28.142101 10.486102 -3.606462 -6.209126 10.930256 -18.653781 -18.592467 1.570209 -4.038391 51.358141 -0.410447 -0.397572 -5.268194 -0.046600 0.000000 -91.052600
9.367456 14.765741 0.634451 -114.724341 86.540174 -83.785626 -8.339080 -2.056337 2.679212 -12.645627 -6.858800 -87.542769 -1.333552 4.254428 49.741459 1.332928 4.664722 -4.545123 0.861601 0.000000 -25.667000 10.801052 -3.684376 -5.892602 10.361146 -18.434969 -17.770988 1.291513 -4.018254 51.735303 -0.422959 -0.604786 -2.653007 -0.096300 -0.000001 -91.825200
9.651046 14.708293 0.663294 -112.916724 86.490856 -82.350295 -8.195859 -2.095444 2.462489 -12.801283 -6.344222 -88.061214 -0.955899 4.547045 53.107295 1.306111 4.761204 -3.841623 0.899900 0.000000 -23.178300 11.104271 -3.725629 -5.606180 9.804891 -18.152083 -17.074477 1.002468 -4.003438 52.286888 -0.473809 -0.923227 -0.057354 -0.154500 0.000000 -91.546000
9.926808 14.655995 0.692413 -111.389823 86.482531 -81.176775 -8.042464 -2.126520 2.233926 -13.010815 -5.871708 -88.398745 -0.623280 4.784012 56.221591 1.328298 4.976242 -3.674867 0.900000 -0.000001 -20.929600 11.393324 -3.729764 -5.354205 9.280824 -17.794659 -16.517015 0.712787 -3.995972 53.039144 -0.561688 -1.369709 2.380381 -0.237400 0.000000 -90.163900
